<?xml version="1.0" encoding="UTF-8" standalone="no"?>
<!-- Created with Inkscape (http://www.inkscape.org/) -->
<svg
   xmlns:dc="http://purl.org/dc/elements/1.1/"
   xmlns:cc="http://creativecommons.org/ns#"
   xmlns:rdf="http://www.w3.org/1999/02/22-rdf-syntax-ns#"
   xmlns:svg="http://www.w3.org/2000/svg"
   xmlns="http://www.w3.org/2000/svg"
   xmlns:xlink="http://www.w3.org/1999/xlink"
   xmlns:sodipodi="http://sodipodi.sourceforge.net/DTD/sodipodi-0.dtd"
   xmlns:inkscape="http://www.inkscape.org/namespaces/inkscape"
   width="885.82672"
   height="177.16534"
   id="svg2"
   sodipodi:version="0.32"
   inkscape:version="0.46"
   version="1.0"
   sodipodi:docname="Logo ZZF.svg"
   inkscape:output_extension="org.inkscape.output.svg.inkscape">
  <defs
     id="defs4">
    <linearGradient
       id="linearGradient10155"
       spreadMethod="pad"
       gradientTransform="matrix(40.38533,0,0,-40.392822,729.24394,43.312592)"
       gradientUnits="userSpaceOnUse"
       y2="0"
       x2="1"
       y1="0"
       x1="0">
      <stop
         id="stop10157"
         offset="0"
         style="stop-opacity:1;stop-color:#f5e8c5" />
      <stop
         id="stop10159"
         offset="0.0171661"
         style="stop-opacity:1;stop-color:#d19b15" />
      <stop
         id="stop10161"
         offset="0.0674133"
         style="stop-opacity:1;stop-color:#9e6f3a" />
      <stop
         id="stop10163"
         offset="0.20224"
         style="stop-opacity:1;stop-color:#d19b15" />
      <stop
         id="stop10165"
         offset="0.376404"
         style="stop-opacity:1;stop-color:#f0dcaa" />
      <stop
         id="stop10167"
         offset="0.584274"
         style="stop-opacity:1;stop-color:#d19b15" />
      <stop
         id="stop10169"
         offset="0.735962"
         style="stop-opacity:1;stop-color:#e7c879" />
      <stop
         id="stop10171"
         offset="0.926971"
         style="stop-opacity:1;stop-color:#d19b15" />
      <stop
         id="stop10173"
         offset="0.926971"
         style="stop-opacity:1;stop-color:#d19b15" />
      <stop
         id="stop10175"
         offset="1"
         style="stop-opacity:1;stop-color:#d19b15" />
    </linearGradient>
    <linearGradient
       inkscape:collect="always"
       xlink:href="#linearGradient10155"
       id="linearGradient16097"
       gradientUnits="userSpaceOnUse"
       gradientTransform="matrix(40.38533,0,0,-40.392822,729.24394,43.312592)"
       spreadMethod="pad"
       x1="0"
       y1="0"
       x2="1"
       y2="0" />
  </defs>
  <sodipodi:namedview
     id="base"
     pagecolor="#ffffff"
     bordercolor="#666666"
     borderopacity="1.0"
     inkscape:pageopacity="0.0"
     inkscape:pageshadow="2"
     inkscape:zoom="0.7"
     inkscape:cx="566.64379"
     inkscape:cy="144.88489"
     inkscape:document-units="cm"
     inkscape:current-layer="layer1"
     showgrid="false"
     units="cm"
     inkscape:window-width="1440"
     inkscape:window-height="844"
     inkscape:window-x="-4"
     inkscape:window-y="-4" />
  <metadata
     id="metadata7">
    <rdf:RDF>
      <cc:Work
         rdf:about="">
        <dc:format>image/svg+xml</dc:format>
        <dc:type
           rdf:resource="http://purl.org/dc/dcmitype/StillImage" />
      </cc:Work>
    </rdf:RDF>
  </metadata>
  <g
     inkscape:label="Ebene 1"
     inkscape:groupmode="layer"
     id="layer1">
    <g
       id="g20932"
       transform="translate(4.5480331,-3.3169809)">
      <path
         id="path18543"
         style="fill:none;stroke:#6590ad;stroke-width:2.48994589;stroke-linecap:butt;stroke-linejoin:round;stroke-miterlimit:4;stroke-dasharray:none;stroke-opacity:1"
         d="M 530.79016,112.23997 C 530.79016,112.23997 579.48243,108.42436 628.46289,84.694949 C 677.44911,60.965535 701.97969,28.042919 701.97969,28.042919 C 701.97969,28.042919 728.91952,64.175952 742.27992,74.568017 C 754.48181,84.060935 767.6693,92.280061 781.43893,90.078304 C 795.20856,87.870782 803.04728,79.184791 811.09926,70.072281 C 819.15123,60.965535 821.48556,55.668637 821.48556,55.668637 C 821.48556,55.668637 827.11675,72.10689 832.28685,80.879338 C 837.45695,89.651785 842.45989,93.594199 846.52335,95.075487 M 702.19295,112.87399 L 702.2794,35.985385 M 821.01293,101.35799 L 821.01293,64.446848 M 683.2878,42.88461 C 677.2128,38.169852 672.5845,36.936406 665.75444,36.936406 C 639.5639,36.936406 624.62999,59.05773 624.62999,75.588203 M 810.9494,64.227825 C 806.8456,60.959772 802.50548,59.905003 794.85697,59.905003 C 782.86258,59.905003 770.06702,70.181793 770.06702,81.375021 M 551.71838,146.47673 C 551.71838,146.47673 678.45201,123.08738 702.70016,119.17954 C 726.95408,115.26595 804.08476,103.24274 855.24968,106.10733 M 619.18323,155.80826 C 619.18323,155.80826 699.9105,134.65525 731.31724,128.51108 C 750.19357,124.81651 810.00414,112.58004 844.60401,115.43886 M 770.06702,61.899265 L 770.06702,94.297379 M 624.65304,39.311077 L 624.65304,97.334882 M 697.54736,27.991046 L 624.81443,34.452224 C 624.81443,34.452224 584.49114,67.161581 545.19956,83.657471 C 506.96852,99.715316 440.54691,108.91428 440.54691,108.91428 M 817.49127,55.063442 L 769.96328,56.579311 C 769.96328,56.579311 759.36948,71.714954 751.49042,76.861995" />
      <path
         id="path18545"
         style="fill:#0b4d82;fill-opacity:1;fill-rule:nonzero;stroke:none"
         d="M 35.210259,79.282775 C 35.210259,78.867784 35.210259,78.608415 34.541663,78.608415 L 23.746134,78.608415 L 34.801032,57.951087 L 34.801032,56.123974 C 34.801032,55.714747 34.726103,55.639818 34.316876,55.639818 L 21.988186,55.639818 C 21.728817,55.639818 21.50403,55.74933 21.394519,56.049045 L 20.870016,57.466931 C 20.835434,57.657135 20.720158,57.806993 20.720158,57.951087 C 20.720158,58.175874 20.904599,58.250803 21.169732,58.250803 L 31.215971,58.250803 L 20.236002,78.758273 L 20.236002,80.700661 C 20.236002,81.150234 20.345514,81.225163 20.760505,81.225163 L 34.616592,81.225163 C 34.910544,81.225163 35.210259,81.109888 35.210259,80.77559 L 35.210259,79.282775 M 52.057739,79.017642 C 52.057739,78.758273 51.907882,78.608415 51.608166,78.608415 L 42.645514,78.608415 L 42.645514,69.161607 L 49.965493,69.161607 C 50.374721,69.161607 50.449649,69.086678 50.449649,68.671687 L 50.449649,67.029014 C 50.449649,66.619787 50.374721,66.544858 49.965493,66.544858 L 42.645514,66.544858 L 42.645514,58.250803 L 50.933806,58.250803 C 51.273868,58.250803 51.383379,58.250803 51.498654,57.916505 L 52.017393,56.348761 C 52.057739,56.198903 52.132668,55.974116 52.132668,55.864605 C 52.132668,55.74933 52.057739,55.639818 51.648512,55.639818 L 40.028765,55.639818 C 39.72905,55.639818 39.579192,55.789676 39.579192,56.083628 L 39.579192,80.77559 C 39.579192,81.075306 39.72905,81.225163 40.028765,81.225163 L 51.533237,81.225163 C 51.942464,81.225163 52.057739,81.150234 52.057739,80.700661 L 52.057739,79.017642 M 71.890849,56.083628 C 71.890849,55.789676 71.740991,55.639818 71.441275,55.639818 L 69.498887,55.639818 C 69.199171,55.639818 69.049314,55.789676 69.049314,56.083628 L 69.049314,73.89942 C 69.049314,74.573781 69.2741,75.397999 69.383612,76.18187 L 69.308683,76.256799 C 68.974385,75.132866 68.864873,74.314411 68.4153,73.380682 L 60.161591,55.974116 C 60.046315,55.74933 59.902221,55.639818 59.602506,55.639818 L 57.060686,55.639818 C 56.76097,55.639818 56.611112,55.824259 56.611112,56.083628 L 56.611112,80.77559 C 56.611112,81.075306 56.76097,81.225163 57.060686,81.225163 L 59.003074,81.225163 C 59.30279,81.225163 59.452648,81.075306 59.452648,80.77559 L 59.452648,62.55057 C 59.452648,61.726352 59.377719,60.642765 59.078003,59.224879 L 59.152932,59.14995 C 59.337372,60.193191 59.712017,61.426636 60.161591,62.400712 L 68.749598,80.850519 C 68.899456,81.109888 69.049314,81.225163 69.349029,81.225163 L 71.441275,81.225163 C 71.740991,81.225163 71.890849,81.034959 71.890849,80.77559 L 71.890849,56.083628 M 90.340655,58.250803 C 90.600025,58.250803 90.824811,58.141291 90.934323,57.841576 L 91.458825,56.42369 C 91.499172,56.239249 91.608683,56.083628 91.608683,55.939534 C 91.608683,55.714747 91.424243,55.639818 91.15911,55.639818 L 76.519151,55.639818 C 76.109924,55.639818 75.994648,55.864605 75.994648,56.123974 L 75.994648,57.806993 C 75.994648,58.100945 76.144506,58.250803 76.444222,58.250803 L 82.012017,58.250803 L 82.012017,80.77559 C 82.012017,81.075306 82.161875,81.225163 82.455827,81.225163 L 84.623002,81.225163 C 84.922718,81.225163 85.072576,81.075306 85.072576,80.77559 L 85.072576,58.250803 L 90.340655,58.250803 M 98.21972,67.14429 L 98.21972,58.250803 L 101.09584,58.250803 C 103.22267,58.250803 105.91434,58.366078 105.91434,62.510224 C 105.91434,66.504512 103.41287,67.14429 100.64626,67.14429 L 98.21972,67.14429 M 104.04688,69.305701 C 106.09878,68.637104 108.9749,66.544858 108.9749,62.435295 C 108.9749,55.824259 104.27167,55.639818 101.39555,55.639818 L 95.602971,55.639818 C 95.309019,55.639818 95.153398,55.789676 95.153398,56.083628 L 95.153398,80.77559 C 95.153398,81.075306 95.309019,81.225163 95.602971,81.225163 L 97.770146,81.225163 C 98.069862,81.225163 98.21972,81.075306 98.21972,80.77559 L 98.21972,69.570834 L 100.90563,69.570834 L 107.07286,81.444186 C 107.18237,81.709319 107.37258,81.784248 107.63195,81.743902 L 109.98356,81.294329 C 110.24293,81.259746 110.39279,81.150234 110.39279,81.034959 C 110.39279,80.925448 110.31786,80.77559 110.24293,80.625732 L 104.04688,69.305701 M 130.52561,56.083628 C 130.52561,55.789676 130.37576,55.639818 130.07604,55.639818 L 127.90886,55.639818 C 127.61491,55.639818 127.46505,55.789676 127.46505,56.083628 L 127.46505,74.274065 C 127.46505,77.674685 125.78204,79.242429 122.34683,79.242429 C 118.8367,79.242429 117.63784,77.340387 117.63784,74.274065 L 117.63784,56.083628 C 117.63784,55.789676 117.49374,55.639818 117.19403,55.639818 L 115.02685,55.639818 C 114.72714,55.639818 114.57728,55.789676 114.57728,56.083628 L 114.57728,74.348994 C 114.57728,78.867784 116.66953,81.743902 122.30649,81.743902 C 128.02414,81.743902 130.52561,78.833202 130.52561,74.348994 L 130.52561,56.083628 M 154.46829,56.083628 C 154.46829,55.789676 154.31843,55.639818 154.01871,55.639818 L 151.59217,55.639818 C 151.29245,55.639818 151.29245,55.714747 151.17718,56.008699 L 146.77366,68.896474 C 146.58346,69.455559 146.43936,70.429635 146.24916,71.213507 L 146.17423,71.213507 C 146.02437,70.389288 145.87451,69.455559 145.69007,68.896474 L 141.2808,56.008699 C 141.17128,55.714747 141.17128,55.639818 140.87157,55.639818 L 138.44502,55.639818 C 138.14531,55.639818 137.99545,55.789676 137.99545,56.083628 L 136.57756,80.77559 C 136.57756,81.075306 136.72742,81.225163 137.02714,81.225163 L 139.18855,81.225163 C 139.48826,81.225163 139.63812,81.075306 139.63812,80.77559 L 140.19721,61.576494 C 140.23755,60.827205 140.19721,59.893475 140.16263,59.259461 L 140.23755,59.184533 C 140.27214,60.008751 140.38741,60.94248 140.68713,61.835864 L 145.01571,74.83315 C 145.13099,75.173212 145.2405,75.248141 145.5748,75.248141 L 146.69873,75.248141 C 147.03303,75.248141 147.10796,75.173212 147.25782,74.83315 L 151.77661,61.835864 C 152.07632,60.94248 152.18584,60.008751 152.22618,59.184533 L 152.30111,59.259461 C 152.26076,59.893475 152.22618,60.827205 152.26076,61.576494 L 152.8602,80.77559 C 152.8602,81.075306 153.01005,81.225163 153.30977,81.225163 L 155.47694,81.225163 C 155.77666,81.225163 155.92075,81.075306 155.92075,80.77559 L 154.46829,56.083628 M 176.76252,69.161607 L 184.0825,69.161607 C 184.49173,69.161607 184.56666,69.086678 184.56666,68.671687 L 184.56666,67.029014 C 184.56666,66.619787 184.49173,66.544858 184.0825,66.544858 L 176.76252,66.544858 L 176.76252,58.250803 L 185.05658,58.250803 C 185.24102,58.250803 185.31595,58.250803 185.43122,58.175874 C 185.57532,58.066362 185.57532,57.991434 185.61566,57.916505 L 186.14017,56.348761 L 186.24968,55.899187 C 186.24968,55.74933 186.17475,55.639818 185.76552,55.639818 L 174.15154,55.639818 C 173.85182,55.639818 173.70196,55.789676 173.70196,56.083628 L 173.70196,80.77559 C 173.70196,81.075306 173.85182,81.225163 174.15154,81.225163 L 176.23802,81.225163 C 176.65301,81.225163 176.76252,81.150234 176.76252,80.700661 L 176.76252,69.161607 M 195.4717,50.072023 C 195.4717,48.988435 194.6129,48.095052 193.49473,48.095052 C 192.41114,48.095052 191.51776,48.988435 191.51776,50.072023 C 191.51776,51.15561 192.41114,52.054757 193.49473,52.054757 C 194.6129,52.054757 195.4717,51.15561 195.4717,50.072023 M 198.87232,50.072023 C 198.87232,51.15561 199.77147,52.054757 200.85505,52.054757 C 201.93864,52.054757 202.83202,51.15561 202.83202,50.072023 C 202.83202,48.988435 201.93864,48.095052 200.85505,48.095052 C 199.77147,48.095052 198.87232,48.988435 198.87232,50.072023 M 205.29891,56.083628 C 205.29891,55.789676 205.14906,55.639818 204.84934,55.639818 L 202.68217,55.639818 C 202.38245,55.639818 202.23259,55.789676 202.23259,56.083628 L 202.23259,74.274065 C 202.23259,77.674685 200.55534,79.242429 197.12013,79.242429 C 193.61,79.242429 192.41114,77.340387 192.41114,74.274065 L 192.41114,56.083628 C 192.41114,55.789676 192.26128,55.639818 191.96157,55.639818 L 189.80015,55.639818 C 189.50044,55.639818 189.35058,55.789676 189.35058,56.083628 L 189.35058,74.348994 C 189.35058,78.867784 191.44283,81.743902 197.07979,81.743902 C 202.79744,81.743902 205.29891,78.833202 205.29891,74.348994 L 205.29891,56.083628 M 214.89558,67.14429 L 214.89558,58.250803 L 217.7717,58.250803 C 219.89853,58.250803 222.5902,58.366078 222.5902,62.510224 C 222.5902,66.504512 220.08873,67.14429 217.32212,67.14429 L 214.89558,67.14429 M 220.72274,69.305701 C 222.77464,68.637104 225.65076,66.544858 225.65076,62.435295 C 225.65076,55.824259 220.94753,55.639818 218.07141,55.639818 L 212.27883,55.639818 C 211.98488,55.639818 211.83502,55.789676 211.83502,56.083628 L 211.83502,80.77559 C 211.83502,81.075306 211.98488,81.225163 212.27883,81.225163 L 214.44601,81.225163 C 214.74572,81.225163 214.89558,81.075306 214.89558,80.77559 L 214.89558,69.570834 L 217.58726,69.570834 L 223.74872,81.444186 C 223.85823,81.709319 224.04844,81.784248 224.30781,81.743902 L 226.65942,81.294329 C 226.92455,81.259746 227.07441,81.150234 227.07441,81.034959 C 227.07441,80.925448 226.99372,80.77559 226.92455,80.625732 L 220.72274,69.305701 M 255.34567,79.282775 C 255.34567,78.867784 255.34567,78.608415 254.67131,78.608415 L 243.87578,78.608415 L 254.93644,57.951087 L 254.93644,56.123974 C 254.93644,55.714747 254.86151,55.639818 254.44652,55.639818 L 242.1236,55.639818 C 241.85846,55.639818 241.63944,55.74933 241.52417,56.049045 L 240.99966,57.466931 C 240.96508,57.657135 240.85557,57.806993 240.85557,57.951087 C 240.85557,58.175874 241.04001,58.250803 241.29938,58.250803 L 251.35138,58.250803 L 240.36565,78.758273 L 240.36565,80.700661 C 240.36565,81.150234 240.48093,81.225163 240.89015,81.225163 L 254.74624,81.225163 C 255.04596,81.225163 255.34567,81.109888 255.34567,80.77559 L 255.34567,79.282775 M 272.18739,79.017642 C 272.18739,78.758273 272.03753,78.608415 271.74358,78.608415 L 262.77516,78.608415 L 262.77516,69.161607 L 270.09514,69.161607 C 270.51013,69.161607 270.58506,69.086678 270.58506,68.671687 L 270.58506,67.029014 C 270.58506,66.619787 270.51013,66.544858 270.09514,66.544858 L 262.77516,66.544858 L 262.77516,58.250803 L 271.06922,58.250803 C 271.40352,58.250803 271.51879,58.250803 271.6283,57.916505 L 272.1528,56.348761 C 272.18739,56.198903 272.26232,55.974116 272.26232,55.864605 C 272.26232,55.74933 272.18739,55.639818 271.77816,55.639818 L 260.16418,55.639818 C 259.86446,55.639818 259.7146,55.789676 259.7146,56.083628 L 259.7146,80.77559 C 259.7146,81.075306 259.86446,81.225163 260.16418,81.225163 L 271.66288,81.225163 C 272.07788,81.225163 272.18739,81.150234 272.18739,80.700661 L 272.18739,79.017642 M 285.93396,79.242429 C 285.93396,78.942713 285.7841,78.792855 285.48439,78.792855 L 282.08377,78.792855 L 282.08377,58.066362 L 285.48439,58.066362 C 285.7841,58.066362 285.93396,57.916505 285.93396,57.616789 L 285.93396,56.083628 C 285.93396,55.789676 285.7841,55.639818 285.48439,55.639818 L 275.62259,55.639818 C 275.32864,55.639818 275.17878,55.789676 275.17878,56.083628 L 275.17878,57.616789 C 275.17878,57.916505 275.32864,58.066362 275.62259,58.066362 L 279.02321,58.066362 L 279.02321,78.792855 L 275.62259,78.792855 C 275.32864,78.792855 275.17878,78.942713 275.17878,79.242429 L 275.17878,80.77559 C 275.17878,81.075306 275.32864,81.225163 275.62259,81.225163 L 285.48439,81.225163 C 285.7841,81.225163 285.93396,81.075306 285.93396,80.77559 L 285.93396,79.242429 M 302.85061,58.250803 C 303.11574,58.250803 303.34053,58.141291 303.45004,57.841576 L 303.97454,56.42369 C 304.00912,56.239249 304.1244,56.083628 304.1244,55.939534 C 304.1244,55.714747 303.9342,55.639818 303.67483,55.639818 L 289.03487,55.639818 C 288.61988,55.639818 288.51037,55.864605 288.51037,56.123974 L 288.51037,57.806993 C 288.51037,58.100945 288.66022,58.250803 288.95994,58.250803 L 294.52197,58.250803 L 294.52197,80.77559 C 294.52197,81.075306 294.67183,81.225163 294.97154,81.225163 L 297.13872,81.225163 C 297.43843,81.225163 297.58829,81.075306 297.58829,80.77559 L 297.58829,58.250803 L 302.85061,58.250803 M 320.63182,69.230772 L 320.63182,80.77559 C 320.63182,81.075306 320.78168,81.225163 321.08139,81.225163 L 323.24857,81.225163 C 323.54252,81.225163 323.69238,81.075306 323.69238,80.77559 L 323.69238,56.083628 C 323.69238,55.789676 323.54252,55.639818 323.24857,55.639818 L 321.08139,55.639818 C 320.78168,55.639818 320.63182,55.789676 320.63182,56.083628 L 320.63182,66.619787 L 311.02939,66.619787 L 311.02939,56.083628 C 311.02939,55.789676 310.87953,55.639818 310.57981,55.639818 L 308.4184,55.639818 C 308.11869,55.639818 307.96883,55.789676 307.96883,56.083628 L 307.96883,80.77559 C 307.96883,81.075306 308.11869,81.225163 308.4184,81.225163 L 310.57981,81.225163 C 310.87953,81.225163 311.02939,81.075306 311.02939,80.77559 L 311.02939,69.230772 L 320.63182,69.230772 M 339.71564,79.242429 C 339.71564,78.942713 339.56578,78.792855 339.27183,78.792855 L 335.87121,78.792855 L 335.87121,58.066362 L 339.27183,58.066362 C 339.56578,58.066362 339.71564,57.916505 339.71564,57.616789 L 339.71564,56.083628 C 339.71564,55.789676 339.56578,55.639818 339.27183,55.639818 L 329.41003,55.639818 C 329.11031,55.639818 328.96046,55.789676 328.96046,56.083628 L 328.96046,57.616789 C 328.96046,57.916505 329.11031,58.066362 329.41003,58.066362 L 332.80489,58.066362 L 332.80489,78.792855 L 329.41003,78.792855 C 329.11031,78.792855 328.96046,78.942713 328.96046,79.242429 L 328.96046,80.77559 C 328.96046,81.075306 329.11031,81.225163 329.41003,81.225163 L 339.27183,81.225163 C 339.56578,81.225163 339.71564,81.075306 339.71564,80.77559 L 339.71564,79.242429 M 355.89452,57.582206 C 355.93487,57.432348 356.04438,57.242144 356.04438,57.132633 C 356.04438,57.023121 355.93487,56.832917 355.74466,56.723406 C 355.22593,56.458272 352.83396,55.115316 349.84257,55.115316 C 345.95779,55.115316 342.41308,57.507277 342.41308,61.801281 C 342.41308,69.530488 353.31812,68.596758 353.31812,74.798567 C 353.31812,77.300041 351.67545,79.057988 348.87426,79.057988 C 346.25751,79.057988 343.98082,77.824543 343.23153,77.484481 C 343.04709,77.374969 342.86265,77.300041 342.7128,77.300041 C 342.48801,77.300041 342.41308,77.484481 342.30357,77.784197 L 341.81365,79.017642 C 341.77907,79.1675 341.66379,79.35194 341.66379,79.467216 C 341.66379,79.651656 341.77907,79.801514 341.96351,79.876443 C 342.52259,80.141576 345.2892,81.743902 348.76475,81.743902 C 353.31812,81.743902 356.67839,78.983059 356.67839,74.423923 C 356.67839,71.957032 355.66973,70.204848 353.65242,68.562175 C 350.66679,66.095285 345.77335,65.386342 345.77335,61.466983 C 345.77335,58.96551 347.49095,57.806993 349.73306,57.806993 C 351.85989,57.806993 353.76769,58.740723 354.47664,59.109604 C 354.66108,59.224879 354.85128,59.299808 355.00114,59.299808 C 355.26051,59.299808 355.26051,59.109604 355.41037,58.809888 L 355.89452,57.582206 M 373.45094,58.250803 C 373.71031,58.250803 373.9351,58.141291 374.04461,57.841576 L 374.56911,56.42369 C 374.60946,56.239249 374.71897,56.083628 374.71897,55.939534 C 374.71897,55.714747 374.53453,55.639818 374.2694,55.639818 L 359.62944,55.639818 C 359.22021,55.639818 359.10494,55.864605 359.10494,56.123974 L 359.10494,57.806993 C 359.10494,58.100945 359.2548,58.250803 359.55451,58.250803 L 365.12231,58.250803 L 365.12231,80.77559 C 365.12231,81.075306 365.27216,81.225163 365.57188,81.225163 L 367.73329,81.225163 C 368.03301,81.225163 368.18287,81.075306 368.18287,80.77559 L 368.18287,58.250803 L 373.45094,58.250803 M 392.50018,68.412318 C 392.50018,60.458324 389.99871,55.115316 384.06203,55.115316 C 378.08501,55.115316 375.61812,60.417978 375.61812,68.412318 C 375.61812,76.366311 378.04466,81.743902 384.06203,81.743902 C 390.03329,81.743902 392.50018,76.366311 392.50018,68.412318 M 384.06203,79.242429 C 379.84296,79.242429 378.98416,74.948425 378.98416,68.412318 C 378.98416,61.910793 379.91212,57.616789 384.06203,57.616789 C 388.24076,57.616789 389.13991,61.910793 389.13991,68.412318 C 389.13991,74.948425 388.28111,79.242429 384.06203,79.242429 M 400.9441,67.14429 L 400.9441,58.250803 L 403.81445,58.250803 C 405.94704,58.250803 408.63872,58.366078 408.63872,62.510224 C 408.63872,66.504512 406.13148,67.14429 403.37064,67.14429 L 400.9441,67.14429 M 406.77126,69.305701 C 408.82316,68.637104 411.69928,66.544858 411.69928,62.435295 C 411.69928,55.824259 406.99605,55.639818 404.11417,55.639818 L 398.32735,55.639818 C 398.02763,55.639818 397.87777,55.789676 397.87777,56.083628 L 397.87777,80.77559 C 397.87777,81.075306 398.02763,81.225163 398.32735,81.225163 L 400.49452,81.225163 C 400.79424,81.225163 400.9441,81.075306 400.9441,80.77559 L 400.9441,69.570834 L 403.63001,69.570834 L 409.79147,81.444186 C 409.90675,81.709319 410.09119,81.784248 410.35632,81.743902 L 412.70794,81.294329 C 412.96731,81.259746 413.11716,81.150234 413.11716,81.034959 C 413.11716,80.925448 413.04223,80.77559 412.96731,80.625732 L 406.77126,69.305701 M 426.48909,79.242429 C 426.48909,78.942713 426.33924,78.792855 426.03952,78.792855 L 422.64466,78.792855 L 422.64466,58.066362 L 426.03952,58.066362 C 426.33924,58.066362 426.48909,57.916505 426.48909,57.616789 L 426.48909,56.083628 C 426.48909,55.789676 426.33924,55.639818 426.03952,55.639818 L 416.17772,55.639818 C 415.88377,55.639818 415.73391,55.789676 415.73391,56.083628 L 415.73391,57.616789 C 415.73391,57.916505 415.88377,58.066362 416.17772,58.066362 L 419.57834,58.066362 L 419.57834,78.792855 L 416.17772,78.792855 C 415.88377,78.792855 415.73391,78.942713 415.73391,79.242429 L 415.73391,80.77559 C 415.73391,81.075306 415.88377,81.225163 416.17772,81.225163 L 426.03952,81.225163 C 426.33924,81.225163 426.48909,81.075306 426.48909,80.77559 L 426.48909,79.242429 M 442.66798,57.582206 C 442.70256,57.432348 442.81784,57.242144 442.81784,57.132633 C 442.81784,57.023121 442.70256,56.832917 442.51812,56.723406 C 441.99362,56.458272 439.60166,55.115316 436.61603,55.115316 C 432.73125,55.115316 429.18654,57.507277 429.18654,61.801281 C 429.18654,69.530488 440.09158,68.596758 440.09158,74.798567 C 440.09158,77.300041 438.4489,79.057988 435.64771,79.057988 C 433.03097,79.057988 430.75428,77.824543 430.00499,77.484481 C 429.82055,77.374969 429.63035,77.300041 429.48049,77.300041 C 429.26146,77.300041 429.18654,77.484481 429.07126,77.784197 L 428.5871,79.017642 C 428.54676,79.1675 428.43725,79.35194 428.43725,79.467216 C 428.43725,79.651656 428.54676,79.801514 428.73696,79.876443 C 429.29605,80.141576 432.06265,81.743902 435.53244,81.743902 C 440.09158,81.743902 443.45185,78.983059 443.45185,74.423923 C 443.45185,71.957032 442.44319,70.204848 440.42587,68.562175 C 437.44024,66.095285 432.54681,65.386342 432.54681,61.466983 C 432.54681,58.96551 434.26441,57.806993 436.50652,57.806993 C 438.63334,57.806993 440.54115,58.740723 441.25009,59.109604 C 441.43453,59.224879 441.62474,59.299808 441.76883,59.299808 C 442.03396,59.299808 442.03396,59.109604 442.18382,58.809888 L 442.66798,57.582206 M 460.52412,77.340387 C 460.40884,77.225112 460.25898,77.040671 460.14947,77.040671 C 459.88434,77.040671 457.79209,79.242429 455.63068,79.242429 C 451.81507,79.242429 450.32226,74.723638 450.32226,67.812886 C 450.32226,61.466983 451.33091,57.616789 455.36555,57.616789 C 457.53272,57.616789 459.62497,59.818546 459.88434,59.818546 C 460.0342,59.818546 460.14947,59.668689 460.25898,59.524595 L 461.04286,58.515936 C 461.19271,58.325732 461.26764,58.175874 461.26764,57.991434 C 461.26764,57.392002 458.58173,55.115316 455.29062,55.115316 C 448.79486,55.115316 446.96198,61.092338 446.96198,68.187531 C 446.96198,75.916737 449.20409,81.743902 455.54999,81.743902 C 458.8411,81.743902 461.52701,79.467216 461.52701,78.867784 C 461.52701,78.683344 461.45208,78.533486 461.30799,78.343282 L 460.52412,77.340387 M 478.70879,69.230772 L 478.70879,80.77559 C 478.70879,81.075306 478.85865,81.225163 479.15836,81.225163 L 481.32554,81.225163 C 481.61949,81.225163 481.76935,81.075306 481.76935,80.77559 L 481.76935,56.083628 C 481.76935,55.789676 481.61949,55.639818 481.32554,55.639818 L 479.15836,55.639818 C 478.85865,55.639818 478.70879,55.789676 478.70879,56.083628 L 478.70879,66.619787 L 469.11212,66.619787 L 469.11212,56.083628 C 469.11212,55.789676 468.96227,55.639818 468.66255,55.639818 L 466.49538,55.639818 C 466.19566,55.639818 466.0458,55.789676 466.0458,56.083628 L 466.0458,80.77559 C 466.0458,81.075306 466.19566,81.225163 466.49538,81.225163 L 468.66255,81.225163 C 468.96227,81.225163 469.11212,81.075306 469.11212,80.77559 L 469.11212,69.230772 L 478.70879,69.230772 M 501.53329,79.017642 C 501.53329,78.758273 501.38343,78.608415 501.07796,78.608415 L 492.1153,78.608415 L 492.1153,69.161607 L 499.44105,69.161607 C 499.85027,69.161607 499.9252,69.086678 499.9252,68.671687 L 499.9252,67.029014 C 499.9252,66.619787 499.85027,66.544858 499.44105,66.544858 L 492.1153,66.544858 L 492.1153,58.250803 L 500.40936,58.250803 C 500.74366,58.250803 500.85893,58.250803 500.96844,57.916505 L 501.49295,56.348761 C 501.53329,56.198903 501.60246,55.974116 501.60246,55.864605 C 501.60246,55.74933 501.53329,55.639818 501.1183,55.639818 L 489.50432,55.639818 C 489.2046,55.639818 489.05475,55.789676 489.05475,56.083628 L 489.05475,80.77559 C 489.05475,81.075306 489.2046,81.225163 489.50432,81.225163 L 501.00879,81.225163 C 501.41802,81.225163 501.53329,81.150234 501.53329,80.700661 L 501.53329,79.017642" />
      <path
         id="path18547"
         style="fill:#0b4d82;fill-opacity:1;fill-rule:nonzero;stroke:none"
         d="M 25.872963,113.97487 L 33.198706,113.97487 C 33.607933,113.97487 33.682862,113.89994 33.682862,113.49071 L 33.682862,111.84804 C 33.682862,111.43881 33.607933,111.36388 33.198706,111.36388 L 25.872963,111.36388 L 25.872963,103.06983 L 34.167018,103.06983 C 34.351459,103.06983 34.426387,103.06983 34.541663,102.9949 C 34.691521,102.88539 34.691521,102.81046 34.726103,102.73553 L 35.250606,101.16778 L 35.360117,100.71821 C 35.360117,100.56835 35.285188,100.45884 34.875961,100.45884 L 23.261978,100.45884 C 22.962262,100.45884 22.812404,100.6087 22.812404,100.90265 L 22.812404,125.59461 C 22.812404,125.89433 22.962262,126.03842 23.261978,126.03842 L 25.354224,126.03842 C 25.763451,126.03842 25.872963,125.96349 25.872963,125.51968 L 25.872963,113.97487 M 54.184568,113.23134 C 54.184568,105.27735 51.683095,99.934339 45.746419,99.934339 C 39.769396,99.934339 37.302505,105.237 37.302505,113.23134 C 37.302505,121.18533 39.72905,126.56293 45.746419,126.56293 C 51.717677,126.56293 54.184568,121.18533 54.184568,113.23134 M 45.746419,124.06145 C 41.52158,124.06145 40.662779,119.76745 40.662779,113.23134 C 40.662779,106.72982 41.596509,102.43581 45.746419,102.43581 C 49.930911,102.43581 50.824294,106.72982 50.824294,113.23134 C 50.824294,119.76745 49.965493,124.06145 45.746419,124.06145 M 62.628481,111.95755 L 62.628481,103.06983 L 65.504599,103.06983 C 67.631428,103.06983 70.323105,103.1851 70.323105,107.32925 C 70.323105,111.3293 67.815868,111.95755 65.055026,111.95755 L 62.628481,111.95755 M 68.449882,114.12472 C 70.507546,113.45613 73.383664,111.36388 73.383664,107.25432 C 73.383664,100.64328 68.674669,100.45884 65.804315,100.45884 L 60.011733,100.45884 C 59.712017,100.45884 59.562159,100.6087 59.562159,100.90265 L 59.562159,125.59461 C 59.562159,125.89433 59.712017,126.03842 60.011733,126.03842 L 62.178908,126.03842 C 62.478623,126.03842 62.628481,125.89433 62.628481,125.59461 L 62.628481,114.38986 L 65.314395,114.38986 L 71.475858,126.26321 C 71.591133,126.52834 71.775574,126.60327 72.040707,126.56293 L 74.392322,126.11912 C 74.651692,126.07877 74.801549,125.96349 74.801549,125.85398 C 74.801549,125.74447 74.72662,125.59461 74.651692,125.44476 L 68.449882,114.12472 M 91.009252,102.40123 C 91.049598,102.25137 91.15911,102.06117 91.15911,101.95166 C 91.15911,101.83638 91.049598,101.65194 90.865158,101.54243 C 90.340655,101.2773 87.948693,99.934339 84.963064,99.934339 C 81.078288,99.934339 77.527809,102.3263 77.527809,106.6203 C 77.527809,114.34951 88.43285,113.41578 88.43285,119.61759 C 88.43285,122.11906 86.790177,123.87125 83.988988,123.87125 C 81.378003,123.87125 79.095553,122.64357 78.352028,122.3035 C 78.161823,122.19399 77.977383,122.11906 77.827525,122.11906 C 77.602738,122.11906 77.527809,122.3035 77.418298,122.60898 L 76.928378,123.83667 C 76.893795,123.98652 76.784284,124.17673 76.784284,124.28624 C 76.784284,124.47068 76.893795,124.62054 77.078236,124.69547 C 77.643085,124.9606 80.403927,126.56293 83.879477,126.56293 C 88.43285,126.56293 91.793124,123.80208 91.793124,119.24295 C 91.793124,116.78182 90.790229,115.02387 88.772912,113.3812 C 85.781518,110.91431 80.888083,110.20537 80.888083,106.28601 C 80.888083,103.77877 82.611449,102.62025 84.847789,102.62025 C 86.980381,102.62025 88.882423,103.55975 89.591366,103.93439 C 89.78157,104.0439 89.966011,104.11883 90.115868,104.11883 C 90.375238,104.11883 90.375238,103.93439 90.525096,103.62891 L 91.009252,102.40123 M 108.86539,122.15941 C 108.75588,122.04414 108.60602,121.85969 108.49075,121.85969 C 108.23138,121.85969 106.13913,124.06145 103.97196,124.06145 C 100.16211,124.06145 98.669293,119.54266 98.669293,112.63191 C 98.669293,106.28601 99.677952,102.43581 103.71259,102.43581 C 105.874,102.43581 107.96624,104.63757 108.23138,104.63757 C 108.38123,104.63757 108.49075,104.49348 108.60602,104.34362 L 109.38989,103.33496 C 109.53975,103.15052 109.60892,102.9949 109.60892,102.81046 C 109.60892,102.21103 106.923,99.934339 103.63766,99.934339 C 97.136132,99.934339 95.309019,105.91136 95.309019,113.00655 C 95.309019,120.73576 97.545359,126.56293 103.89703,126.56293 C 107.18237,126.56293 109.87405,124.28624 109.87405,123.68681 C 109.87405,123.50237 109.79912,123.35251 109.64926,123.16807 L 108.86539,122.15941 M 127.05583,114.05556 L 127.05583,125.59461 C 127.05583,125.89433 127.19992,126.03842 127.49964,126.03842 L 129.66681,126.03842 C 129.96653,126.03842 130.11639,125.89433 130.11639,125.59461 L 130.11639,100.90265 C 130.11639,100.6087 129.96653,100.45884 129.66681,100.45884 L 127.49964,100.45884 C 127.19992,100.45884 127.05583,100.6087 127.05583,100.90265 L 127.05583,111.43881 L 117.4534,111.43881 L 117.4534,100.90265 C 117.4534,100.6087 117.30354,100.45884 117.00382,100.45884 L 114.84241,100.45884 C 114.5427,100.45884 114.39284,100.6087 114.39284,100.90265 L 114.39284,125.59461 C 114.39284,125.89433 114.5427,126.03842 114.84241,126.03842 L 117.00382,126.03842 C 117.30354,126.03842 117.4534,125.89433 117.4534,125.59461 L 117.4534,114.05556 L 127.05583,114.05556 M 152.90054,100.90265 C 152.90054,100.6087 152.75068,100.45884 152.45097,100.45884 L 150.28379,100.45884 C 149.98408,100.45884 149.83422,100.6087 149.83422,100.90265 L 149.83422,119.09309 C 149.83422,122.49371 148.15696,124.06145 144.72176,124.06145 C 141.20587,124.06145 140.01277,122.15941 140.01277,119.09309 L 140.01277,100.90265 C 140.01277,100.6087 139.86291,100.45884 139.56319,100.45884 L 137.39602,100.45884 C 137.10207,100.45884 136.95221,100.6087 136.95221,100.90265 L 136.95221,119.16802 C 136.95221,123.68681 139.03869,126.56293 144.68142,126.56293 C 150.39907,126.56293 152.90054,123.65223 152.90054,119.16802 L 152.90054,100.90265 M 174.56076,100.90265 C 174.56076,100.6087 174.41091,100.45884 174.11119,100.45884 L 172.1688,100.45884 C 171.87485,100.45884 171.71923,100.6087 171.71923,100.90265 L 171.71923,118.72421 C 171.71923,119.3928 171.94978,120.21702 172.05929,121.00089 L 171.98436,121.07582 C 171.65006,119.95189 171.53479,119.13343 171.09098,118.1997 L 162.83151,100.79314 C 162.72199,100.56835 162.57214,100.45884 162.27242,100.45884 L 159.7306,100.45884 C 159.43665,100.45884 159.28679,100.64328 159.28679,100.90265 L 159.28679,125.59461 C 159.28679,125.89433 159.43665,126.03842 159.7306,126.03842 L 161.67299,126.03842 C 161.97271,126.03842 162.12256,125.89433 162.12256,125.59461 L 162.12256,107.36383 C 162.12256,106.54538 162.04763,105.46179 161.75368,104.0439 L 161.82285,103.96897 C 162.01305,105.01221 162.38193,106.24566 162.83151,107.21974 L 171.42528,125.66954 C 171.57514,125.92891 171.71923,126.03842 172.01894,126.03842 L 174.11119,126.03842 C 174.41091,126.03842 174.56076,125.85398 174.56076,125.59461 L 174.56076,100.90265 M 195.29302,113.53106 C 195.29302,113.23134 195.1374,113.08148 194.84345,113.08148 L 189.24107,113.08148 C 188.94135,113.08148 188.7915,113.23134 188.7915,113.53106 L 188.7915,115.05845 C 188.7915,115.35817 188.94135,115.50803 189.24107,115.50803 L 192.2267,115.50803 L 192.2267,123.35251 C 191.51776,123.68681 190.5091,124.06145 188.7915,124.06145 C 184.72228,124.06145 183.11419,119.54266 183.11419,112.63191 C 183.11419,106.32059 184.75686,102.43581 188.86643,102.43581 C 191.85205,102.43581 193.38522,104.26869 193.75986,104.26869 C 193.9443,104.26869 194.1345,104.00356 194.24402,103.74419 L 194.8031,102.69518 C 194.91838,102.47039 194.99331,102.36088 194.99331,102.21103 C 194.99331,101.68652 192.2267,99.934339 188.7915,99.934339 C 182.21504,99.934339 179.75392,105.91136 179.75392,113.00655 C 179.75392,120.73576 182.10553,126.56293 188.71657,126.56293 C 190.99325,126.56293 193.38522,125.96349 194.76852,125.17962 C 195.29302,124.88567 195.29302,124.58595 195.29302,123.61188 L 195.29302,113.53106" />
      <path
         id="path18549"
         style="fill:#6590ad;fill-opacity:1;fill-rule:nonzero;stroke:none"
         d="M 215.94459,112.63191 L 215.94459,103.06983 L 218.8207,103.06983 C 220.94753,103.06983 223.63921,103.1851 223.63921,107.32925 C 223.63921,111.92297 221.13774,112.63191 218.37113,112.63191 L 215.94459,112.63191 M 215.94459,115.24866 L 218.6305,115.24866 C 222.55562,115.24866 226.69977,113.56564 226.69977,107.25432 C 226.69977,100.64328 221.99077,100.45884 219.11465,100.45884 L 213.32784,100.45884 C 213.02812,100.45884 212.87826,100.6087 212.87826,100.90265 L 212.87826,125.59461 C 212.87826,125.89433 213.02812,126.03842 213.32784,126.03842 L 215.49501,126.03842 C 215.79473,126.03842 215.94459,125.89433 215.94459,125.59461 L 215.94459,115.24866 M 246.98245,113.23134 C 246.98245,105.27735 244.48098,99.934339 238.53854,99.934339 C 232.56151,99.934339 230.10039,105.237 230.10039,113.23134 C 230.10039,121.18533 232.52693,126.56293 238.53854,126.56293 C 244.51556,126.56293 246.98245,121.18533 246.98245,113.23134 M 238.53854,124.06145 C 234.31946,124.06145 233.46066,119.76745 233.46066,113.23134 C 233.46066,106.72982 234.39439,102.43581 238.53854,102.43581 C 242.72303,102.43581 243.61641,106.72982 243.61641,113.23134 C 243.61641,119.76745 242.75761,124.06145 238.53854,124.06145 M 262.97113,103.06983 C 263.2305,103.06983 263.45529,102.96031 263.5648,102.6606 L 264.0893,101.24271 C 264.12965,101.05251 264.23916,100.90265 264.23916,100.75856 C 264.23916,100.52801 264.05472,100.45884 263.78958,100.45884 L 249.14963,100.45884 C 248.7404,100.45884 248.62512,100.67786 248.62512,100.943 L 248.62512,102.62025 C 248.62512,102.91997 248.77498,103.06983 249.0747,103.06983 L 254.64249,103.06983 L 254.64249,125.59461 C 254.64249,125.89433 254.79235,126.03842 255.0863,126.03842 L 257.25348,126.03842 C 257.55319,126.03842 257.70305,125.89433 257.70305,125.59461 L 257.70305,103.06983 L 262.97113,103.06983 M 279.00016,102.40123 C 279.03474,102.25137 279.15001,102.06117 279.15001,101.95166 C 279.15001,101.83638 279.03474,101.65194 278.8503,101.54243 C 278.3258,101.2773 275.93383,99.934339 272.9482,99.934339 C 269.06343,99.934339 265.51871,102.3263 265.51871,106.6203 C 265.51871,114.34951 276.42375,113.41578 276.42375,119.61759 C 276.42375,122.11906 274.77532,123.87125 271.97413,123.87125 C 269.36314,123.87125 267.08646,122.64357 266.33717,122.3035 C 266.14696,122.19399 265.96252,122.11906 265.81267,122.11906 C 265.58788,122.11906 265.51871,122.3035 265.40344,122.60898 L 264.91928,123.83667 C 264.87894,123.98652 264.76942,124.17673 264.76942,124.28624 C 264.76942,124.47068 264.87894,124.62054 265.06914,124.69547 C 265.62822,124.9606 268.38907,126.56293 271.86462,126.56293 C 276.42375,126.56293 279.78403,123.80208 279.78403,119.24295 C 279.78403,116.78182 278.77537,115.02387 276.75805,113.3812 C 273.77242,110.91431 268.87322,110.20537 268.87322,106.28601 C 268.87322,103.77877 270.59659,102.62025 272.83869,102.62025 C 274.96552,102.62025 276.86756,103.55975 277.58227,103.93439 C 277.76671,104.0439 277.95115,104.11883 278.10101,104.11883 C 278.36614,104.11883 278.36614,103.93439 278.51024,103.62891 L 279.00016,102.40123 M 288.03774,123.42744 L 288.03774,103.06983 L 290.08964,103.06983 C 294.45857,103.06983 296.81595,104.67792 296.81595,112.8567 C 296.81595,119.24295 295.69201,123.42744 290.34901,123.42744 L 288.03774,123.42744 M 285.42099,100.45884 C 285.12127,100.45884 284.97141,100.6087 284.97141,100.90265 L 284.97141,125.59461 C 284.97141,125.89433 285.12127,126.03842 285.42099,126.03842 L 289.71499,126.03842 C 297.33469,126.03842 300.17622,121.89428 300.17622,113.00655 C 300.17622,101.68652 295.31737,100.45884 290.12998,100.45884 L 285.42099,100.45884 M 315.04673,115.80774 L 308.81034,115.80774 L 311.08703,107.55403 C 311.35216,106.54538 311.72104,104.9027 311.8709,104.00356 L 311.94583,104.00356 C 312.13603,105.05256 312.51068,106.39552 312.80463,107.55403 L 315.04673,115.80774 M 313.66343,100.86807 C 313.51933,100.45884 313.40406,100.45884 313.10434,100.45884 L 310.90259,100.45884 C 310.48759,100.45884 310.45301,100.49342 310.3435,100.86807 L 302.87366,125.17962 C 302.75839,125.44476 302.71804,125.6292 302.68346,125.81364 C 302.68346,126.00384 302.83332,126.03842 303.20796,126.03842 L 305.52499,126.03842 C 305.9688,126.03842 306.11866,125.89433 306.19359,125.6292 L 308.1014,118.41873 L 315.75567,118.41873 L 317.84792,125.6292 C 317.92285,125.89433 318.07271,126.03842 318.52228,126.03842 L 320.83931,126.03842 C 321.20819,126.03842 321.35805,126.00384 321.35805,125.81364 C 321.32347,125.6292 321.24854,125.44476 321.17361,125.17962 L 313.66343,100.86807 M 343.24883,100.90265 C 343.24883,100.6087 343.09897,100.45884 342.79925,100.45884 L 340.37271,100.45884 C 340.07299,100.45884 340.07299,100.52801 339.95772,100.83349 L 335.5542,113.7155 C 335.364,114.27458 335.21414,115.24866 335.0297,116.03253 L 334.95477,116.03253 C 334.80491,115.21408 334.65505,114.27458 334.47061,113.7155 L 330.06133,100.83349 C 329.95182,100.52801 329.95182,100.45884 329.65211,100.45884 L 327.22556,100.45884 C 326.92585,100.45884 326.77599,100.6087 326.77599,100.90265 L 325.3581,125.59461 C 325.3581,125.89433 325.50796,126.03842 325.80191,126.03842 L 327.96909,126.03842 C 328.2688,126.03842 328.41866,125.89433 328.41866,125.59461 L 328.97775,106.39552 C 329.01809,105.65199 328.97775,104.71826 328.94316,104.07848 L 329.01809,104.00356 C 329.05268,104.82777 329.16795,105.7615 329.46767,106.66065 L 333.79625,119.65794 C 333.91153,119.99224 334.02104,120.06716 334.35534,120.06716 L 335.47927,120.06716 C 335.81357,120.06716 335.8885,119.99224 336.03836,119.65794 L 340.55715,106.66065 C 340.85686,105.7615 340.96637,104.82777 341.00672,104.00356 L 341.08165,104.07848 C 341.0413,104.71826 341.00672,105.65199 341.0413,106.39552 L 341.64074,125.59461 C 341.64074,125.89433 341.79059,126.03842 342.09031,126.03842 L 344.25748,126.03842 C 344.55144,126.03842 344.70129,125.89433 344.70129,125.59461 L 343.24883,100.90265" />
    </g>
  </g>
</svg>
